<svg width="95" height="95" viewBox="0 0 89 89" fill="none" xmlns="http://www.w3.org/2000/svg">
<path d="M62.7045 0C55.979 0 49.8582 2.56077 45.2039 6.72759C41.153 4.96259 36.7824 4.04963 32.3636 4.04545C14.5131 4.04545 0 18.5585 0 36.4091C0 45.8512 4.08591 54.3345 10.5485 60.251C8.94498 62.8043 8.09324 65.7577 8.09091 68.7727C8.09091 77.6849 15.3606 84.9545 24.2727 84.9545C30.4744 84.9545 35.871 81.431 38.5855 76.2872C42.1658 83.7895 49.8097 89 58.6591 89C70.9229 89 80.9091 79.0138 80.9091 66.75C80.9091 60.2004 78.0469 54.3203 73.5261 50.2445C82.6486 46.1121 89 36.939 89 26.2955C89 11.7965 77.2035 0 62.7045 0ZM62.7045 4.04545C75.0169 4.04545 84.9545 13.9831 84.9545 26.2955C84.9545 36.1785 78.5223 44.5121 69.6425 47.4269C66.2995 45.5095 62.5129 44.5004 58.6591 44.5C56.3085 44.5024 53.9733 44.8793 51.7414 45.6165C45.0178 41.7936 40.4545 34.6028 40.4545 26.2955C40.4545 13.9831 50.3922 4.04545 62.7045 4.04545ZM32.3636 8.09091C35.8306 8.09091 39.1317 8.73818 42.1961 9.87698C38.4489 14.5284 36.4067 20.3224 36.4091 26.2955C36.4091 35.068 40.7215 42.8515 47.344 47.6292C42.7735 50.3414 39.3196 54.5943 37.6025 59.6239C36.1179 57.4583 34.1286 55.6863 31.8063 54.4611C29.484 53.2358 26.8984 52.5939 24.2727 52.5909C20.1021 52.5929 16.0947 54.212 13.0931 57.1077C7.54073 51.9376 4.04545 44.6072 4.04545 36.4091C4.04545 20.7451 16.6996 8.09091 32.3636 8.09091ZM58.6591 48.5455C68.7363 48.5455 76.8636 56.6728 76.8636 66.75C76.8636 76.8272 68.7363 84.9545 58.6591 84.9545C48.5819 84.9545 40.4545 76.8272 40.4545 66.75C40.4545 56.6728 48.5819 48.5455 58.6591 48.5455ZM24.2727 56.6364C31.0003 56.6364 36.4091 62.0451 36.4091 68.7727C36.4091 75.5003 31.0003 80.9091 24.2727 80.9091C17.5451 80.9091 12.1364 75.5003 12.1364 68.7727C12.1364 62.0451 17.5451 56.6364 24.2727 56.6364Z" fill="#F10505"/>
</svg>
