<svg width="92" height="92" viewBox="0 0 92 92" fill="none" xmlns="http://www.w3.org/2000/svg">
<circle cx="46" cy="46" r="46" fill="#06AFF2"/>
<path d="M57.7057 20.2834C53.3811 20.2834 49.4453 21.8258 46.4525 24.3356C43.8477 23.2725 41.0374 22.7226 38.1961 22.7201C26.7179 22.7201 17.3857 31.4616 17.3857 42.2133C17.3857 47.9004 20.013 53.0101 24.1686 56.5737C23.1375 58.1116 22.5898 59.8905 22.5883 61.7065C22.5883 67.0744 27.2628 71.4531 32.9935 71.4531C36.9812 71.4531 40.4514 69.3308 42.1968 66.2326C44.499 70.7513 49.4141 73.8897 55.1044 73.8897C62.9902 73.8897 69.4115 67.8749 69.4115 60.4882C69.4115 56.5432 67.5711 53.0016 64.6642 50.5466C70.5301 48.0576 74.6141 42.5325 74.6141 36.1217C74.6141 27.3887 67.0287 20.2834 57.7057 20.2834ZM57.7057 22.7201C65.6227 22.7201 72.0128 28.7057 72.0128 36.1217C72.0128 42.0744 67.8768 47.0939 62.1669 48.8495C60.0173 47.6946 57.5825 47.0868 55.1044 47.0866C53.593 47.088 52.0914 47.3151 50.6562 47.7591C46.3329 45.4565 43.3986 41.1253 43.3986 36.1217C43.3986 28.7057 49.7887 22.7201 57.7057 22.7201ZM38.1961 25.1567C40.4254 25.1567 42.548 25.5466 44.5185 26.2325C42.1089 29.0342 40.7958 32.524 40.7973 36.1217C40.7973 41.4055 43.5703 46.0937 47.8286 48.9713C44.8897 50.605 42.6688 53.1665 41.5647 56.196C40.6101 54.8916 39.3309 53.8243 37.8377 53.0863C36.3444 52.3483 34.6818 51.9617 32.9935 51.9599C30.3117 51.9611 27.7349 52.9363 25.8048 54.6804C22.2345 51.5664 19.987 47.1512 19.987 42.2133C19.987 32.7786 28.1239 25.1567 38.1961 25.1567ZM55.1044 49.5232C61.5842 49.5232 66.8102 54.4185 66.8102 60.4882C66.8102 66.5579 61.5842 71.4531 55.1044 71.4531C48.6246 71.4531 43.3986 66.5579 43.3986 60.4882C43.3986 54.4185 48.6246 49.5232 55.1044 49.5232ZM32.9935 54.3965C37.3194 54.3965 40.7973 57.6543 40.7973 61.7065C40.7973 65.7586 37.3194 69.0164 32.9935 69.0164C28.6675 69.0164 25.1896 65.7586 25.1896 61.7065C25.1896 57.6543 28.6675 54.3965 32.9935 54.3965Z" fill="white"/>
</svg>
