<svg width="92" height="92" viewBox="0 0 92 92" fill="none" xmlns="http://www.w3.org/2000/svg">
<circle cx="46" cy="46" r="46" fill="#06AFF2"/>
<path d="M66.0551 24.543C65.5098 20.9078 62.4146 18.1102 58.6788 18.1102C54.5602 18.1102 51.2091 21.5069 51.2091 25.6815C51.2091 29.0923 51.915 32.3981 53.3081 35.5052C54.4734 38.1031 54.8506 40.9319 54.4323 43.6944C53.8991 42.8436 53.2306 42.0742 52.4341 41.4249C49.056 38.6718 43.6153 35.6273 36.8785 36.7251C29.8188 37.8825 23.1175 43.3736 16.9597 53.0477C16.589 53.6298 16.5619 54.3708 16.8887 54.9794C17.2165 55.5879 17.8458 55.9665 18.5293 55.9665H21.5704C22.0662 55.9665 22.5377 56.1832 22.8636 56.5618C25.6787 59.8231 29.4154 62.0556 33.5069 63.0115L30.8636 68.3701C30.5741 68.9568 30.6049 69.6534 30.9457 70.2118C31.2865 70.7692 31.8879 71.109 32.5349 71.109H41.872V74.8946C41.872 75.9394 42.7086 76.7874 43.7394 76.7874C44.7703 76.7874 45.6069 75.9394 45.6069 74.8946V71.109H49.3417V73.0018C49.3417 74.0466 50.1783 74.8946 51.2091 74.8946C52.2399 74.8946 53.0765 74.0466 53.0765 73.0018V69.2161C53.0765 68.1713 52.2399 67.3233 51.2091 67.3233H45.6069V62.0443C48.0747 61.0297 50.3436 59.5202 52.2829 57.5545C53.6769 56.1415 54.6863 54.4456 55.2754 52.5973C55.4818 52.4004 55.661 52.1704 55.7647 51.8818L57.2399 47.7706C58.8655 43.2392 58.6769 38.3264 56.7087 33.9389C56.5453 33.5745 56.3959 33.2063 56.2549 32.8363C57.0159 33.1013 57.8301 33.2527 58.6788 33.2527C59.2278 33.2527 59.7619 33.1884 60.2773 33.0739L65.6872 39.2425C66.0448 39.6514 66.5556 39.8776 67.0822 39.8776C67.2166 39.8776 67.3511 39.8624 67.4855 39.8331C68.1466 39.6845 68.677 39.1848 68.8712 38.528L69.8721 35.1455C71.071 31.0949 69.4725 26.8096 66.0551 24.543ZM37.4752 40.4624C42.718 39.6031 47.069 41.9729 49.8664 44.1951C44.3193 49.352 37.1755 52.1808 29.6012 52.1808H22.2641C22.1922 52.1808 22.1241 52.1941 22.054 52.2026C27.0232 45.2711 32.1997 41.3265 37.4752 40.4624ZM41.872 67.3233H35.5564L37.4322 63.5216C37.632 63.5273 37.8309 63.5377 38.0317 63.5377C39.3351 63.5377 40.619 63.4071 41.872 63.1639V67.3233ZM49.6423 54.8781C46.5415 58.0211 42.4173 59.7521 38.0317 59.7521C34.2119 59.7521 30.5555 58.3845 27.6423 55.9665H29.6012C37.9299 55.9665 45.7936 52.9228 51.9692 47.3655C52.0803 47.8151 52.1428 48.2816 52.1428 48.7596C52.1428 51.0707 51.2549 53.2437 49.6423 54.8781ZM54.944 25.6815C54.944 23.5937 56.619 21.8959 58.6788 21.8959C60.7386 21.8959 62.4136 23.5937 62.4136 25.6815C62.4136 27.7692 60.7386 29.4671 58.6788 29.4671C56.619 29.4671 54.944 27.7692 54.944 25.6815ZM66.2951 34.0581L66.2549 34.1925L63.6965 31.2747C64.3866 30.6378 64.958 29.8741 65.3754 29.0166C66.4286 30.4173 66.8235 32.2713 66.2951 34.0581Z" fill="white"/>
</svg>
