<svg width="95" height="95" viewBox="0 0 82 89" fill="none" xmlns="http://www.w3.org/2000/svg">
<path d="M75.5561 9.75698C74.722 4.24329 69.9873 0 64.2728 0C57.9727 0 52.8467 5.15195 52.8467 11.4839C52.8467 16.6574 53.9264 21.6715 56.0574 26.3842C57.8399 30.3246 58.4169 34.6153 57.7771 38.8054C56.9615 37.5149 55.9389 36.3479 54.7206 35.3631C49.5531 31.1873 41.2306 26.5694 30.9256 28.2345C20.1265 29.9901 9.87578 38.3188 0.456344 52.9923C-0.110679 53.8751 -0.152099 54.9991 0.347795 55.9221C0.849118 56.8452 1.81177 57.4194 2.85726 57.4194H7.50913C8.26755 57.4194 8.98882 57.7481 9.48729 58.3223C13.7935 63.269 19.5094 66.6553 25.7681 68.1051L21.7247 76.2328C21.2819 77.1228 21.3291 78.1793 21.8504 79.0263C22.3717 79.8717 23.2915 80.3871 24.2813 80.3871H38.564V86.129C38.564 87.7138 39.8437 89 41.4205 89C42.9973 89 44.2771 87.7138 44.2771 86.129V80.3871H49.9901V83.2581C49.9901 84.8428 51.2699 86.129 52.8467 86.129C54.4235 86.129 55.7032 84.8428 55.7032 83.2581V77.5161C55.7032 75.9314 54.4235 74.6452 52.8467 74.6452H44.2771V66.638C48.052 65.0992 51.5227 62.8096 54.4892 59.8281C56.6216 57.6849 58.1655 55.1125 59.0668 52.309C59.3824 52.0104 59.6567 51.6616 59.8152 51.2238L62.0719 44.9881C64.5585 38.115 64.27 30.6634 61.2592 24.0085C61.0092 23.4558 60.7807 22.8974 60.565 22.3361C61.7291 22.7381 62.9745 22.9677 64.2728 22.9677C65.1126 22.9677 65.9296 22.8701 66.718 22.6964L74.9934 32.0529C75.5404 32.673 76.3217 33.0161 77.1272 33.0161C77.3329 33.0161 77.5386 32.9932 77.7442 32.9487C78.7555 32.7233 79.5667 31.9654 79.8638 30.9691L81.3949 25.8387C83.2288 19.6948 80.7836 13.195 75.5561 9.75698ZM31.8383 33.9033C39.858 32.5998 46.5137 36.1943 50.7928 39.5648C42.3075 47.3868 31.3798 51.6774 19.7937 51.6774H8.57034C8.46036 51.6774 8.3561 51.6975 8.24898 51.7104C15.8502 41.1969 23.7685 35.2139 31.8383 33.9033ZM38.564 74.6452H28.9032L31.7726 68.8788C32.0782 68.8874 32.3824 68.9032 32.6895 68.9032C34.6834 68.9032 36.6472 68.7051 38.564 68.3362V74.6452ZM50.45 55.7685C45.7068 60.5358 39.3981 63.1613 32.6895 63.1613C26.8465 63.1613 21.2534 61.087 16.7972 57.4194H19.7937C32.5338 57.4194 44.5627 52.8028 54.0093 44.3737C54.1792 45.0555 54.2749 45.7632 54.2749 46.4881C54.2749 49.9936 52.9167 53.2895 50.45 55.7685ZM58.5597 11.4839C58.5597 8.31719 61.1221 5.74194 64.2728 5.74194C67.4236 5.74194 69.9859 8.31719 69.9859 11.4839C69.9859 14.6505 67.4236 17.2258 64.2728 17.2258C61.1221 17.2258 58.5597 14.6505 58.5597 11.4839ZM75.9232 24.1893L75.8618 24.3932L71.9483 19.9676C73.0038 19.0015 73.8779 17.8431 74.5164 16.5425C76.1274 18.667 76.7316 21.4791 75.9232 24.1893Z" fill="#FE6AB4"/>
</svg>
