<svg width="95" height="95" viewBox="0 0 111 111" fill="none" xmlns="http://www.w3.org/2000/svg">
<path d="M58.9685 21.1594C63.1268 22.009 66.8293 24.3539 69.3748 27.75C71.0985 25.4524 73.3659 23.619 75.9733 22.4142C78.5807 21.2094 81.4465 20.6711 84.3134 20.8475C87.1803 21.0239 89.9584 21.9096 92.3984 23.425C94.8385 24.9404 96.8639 27.038 98.2929 29.5296C99.722 32.0212 100.51 34.8287 100.586 37.7C100.662 40.5713 100.023 43.4164 98.728 45.9801C97.4327 48.5437 95.521 50.7455 93.1645 52.3877C90.808 54.03 88.0805 55.0613 85.227 55.389C86.3339 57.877 86.8394 60.5908 86.7025 63.3105C86.5657 66.0302 85.7903 68.6795 84.4393 71.0438C83.0882 73.4082 81.1994 75.4212 78.9257 76.9198C76.6521 78.4185 74.0575 79.3607 71.352 79.6703C72.5241 82.3108 73.018 85.2023 72.7889 88.0821C72.5598 90.962 71.615 93.7391 70.0402 96.1611C68.4654 98.5831 66.3105 100.573 63.7712 101.951C61.232 103.329 58.3887 104.051 55.4998 104.051C52.6108 104.051 49.7676 103.329 47.2283 101.951C44.689 100.573 42.5342 98.5831 40.9594 96.1611C39.3846 93.7391 38.4397 90.962 38.2106 88.0821C37.9815 85.2023 38.4755 82.3108 39.6476 79.6703C36.9421 79.3607 34.3475 78.4185 32.0738 76.9198C29.8001 75.4212 27.9113 73.4082 26.5603 71.0438C25.2092 68.6795 24.4339 66.0302 24.297 63.3105C24.1602 60.5908 24.6657 57.877 25.7726 55.389C22.919 55.0613 20.1916 54.03 17.8351 52.3877C15.4786 50.7455 13.5668 48.5437 12.2715 45.9801C10.9762 43.4164 10.3378 40.5713 10.4138 37.7C10.4897 34.8287 11.2776 32.0212 12.7066 29.5296C14.1356 27.038 16.1611 24.9404 18.6011 23.425C21.0411 21.9096 23.8193 21.0239 26.6861 20.8475C29.553 20.6711 32.4188 21.2094 35.0262 22.4142C37.6336 23.619 39.901 25.4524 41.6248 27.75C44.1703 24.3539 47.8727 22.009 52.031 21.1594V13.875H45.0935C44.1735 13.875 43.2913 13.5095 42.6407 12.859C41.9902 12.2085 41.6248 11.3262 41.6248 10.4063C41.6248 9.48628 41.9902 8.60399 42.6407 7.95347C43.2913 7.30296 44.1735 6.9375 45.0935 6.9375H65.906C66.826 6.9375 67.7083 7.30296 68.3588 7.95347C69.0093 8.60399 69.3748 9.48628 69.3748 10.4063C69.3748 11.3262 69.0093 12.2085 68.3588 12.859C67.7083 13.5095 66.826 13.875 65.906 13.875H58.9685V21.1594ZM55.4998 48.5625C56.8663 48.5625 58.2195 48.2933 59.4821 47.7704C60.7446 47.2474 61.8918 46.4809 62.8581 45.5146C63.8244 44.5483 64.5909 43.4011 65.1139 42.1386C65.6369 40.876 65.906 39.5228 65.906 38.1563C65.906 36.7897 65.6369 35.4365 65.1139 34.174C64.5909 32.9114 63.8244 31.7642 62.8581 30.7979C61.8918 29.8316 60.7446 29.0651 59.4821 28.5421C58.2195 28.0192 56.8663 27.75 55.4998 27.75C52.7399 27.75 50.093 28.8464 48.1414 30.7979C46.1899 32.7495 45.0935 35.3963 45.0935 38.1563C45.0935 40.9162 46.1899 43.563 48.1414 45.5146C50.093 47.4661 52.7399 48.5625 55.4998 48.5625ZM27.7498 48.5625C29.1163 48.5625 30.4695 48.2933 31.7321 47.7704C32.9946 47.2474 34.1418 46.4809 35.1081 45.5146C36.0744 44.5483 36.8409 43.4011 37.3639 42.1386C37.8869 40.876 38.156 39.5228 38.156 38.1563C38.156 36.7897 37.8869 35.4365 37.3639 34.174C36.8409 32.9114 36.0744 31.7642 35.1081 30.7979C34.1418 29.8316 32.9946 29.0651 31.7321 28.5421C30.4695 28.0192 29.1163 27.75 27.7498 27.75C24.9899 27.75 22.343 28.8464 20.3914 30.7979C18.4399 32.7495 17.3435 35.3963 17.3435 38.1563C17.3435 40.9162 18.4399 43.563 20.3914 45.5146C22.343 47.4661 24.9899 48.5625 27.7498 48.5625ZM41.6248 72.8438C44.3847 72.8438 47.0315 71.7474 48.9831 69.7958C50.9347 67.8443 52.031 65.1974 52.031 62.4375C52.031 59.6776 50.9347 57.0307 48.9831 55.0792C47.0315 53.1276 44.3847 52.0313 41.6248 52.0313C38.8649 52.0313 36.218 53.1276 34.2664 55.0792C32.3149 57.0307 31.2185 59.6776 31.2185 62.4375C31.2185 65.1974 32.3149 67.8443 34.2664 69.7958C36.218 71.7474 38.8649 72.8438 41.6248 72.8438ZM55.4998 97.125C56.8663 97.125 58.2195 96.8558 59.4821 96.3329C60.7446 95.8099 61.8918 95.0434 62.8581 94.0771C63.8244 93.1108 64.5909 91.9636 65.1139 90.7011C65.6369 89.4385 65.906 88.0853 65.906 86.7188C65.906 85.3522 65.6369 83.999 65.1139 82.7365C64.5909 81.4739 63.8244 80.3267 62.8581 79.3604C61.8918 78.3941 60.7446 77.6276 59.4821 77.1046C58.2195 76.5817 56.8663 76.3125 55.4998 76.3125C52.7399 76.3125 50.093 77.4089 48.1414 79.3604C46.1899 81.312 45.0935 83.9588 45.0935 86.7188C45.0935 89.4787 46.1899 92.1255 48.1414 94.0771C50.093 96.0286 52.7399 97.125 55.4998 97.125ZM69.3748 72.8438C72.1347 72.8438 74.7816 71.7474 76.7331 69.7958C78.6847 67.8443 79.781 65.1974 79.781 62.4375C79.781 59.6776 78.6847 57.0307 76.7331 55.0792C74.7816 53.1276 72.1347 52.0313 69.3748 52.0313C66.6149 52.0313 63.968 53.1276 62.0164 55.0792C60.0649 57.0307 58.9685 59.6776 58.9685 62.4375C58.9685 65.1974 60.0649 67.8443 62.0164 69.7958C63.968 71.7474 66.6149 72.8438 69.3748 72.8438ZM83.2498 48.5625C84.6163 48.5625 85.9695 48.2933 87.2321 47.7704C88.4946 47.2474 89.6418 46.4809 90.6081 45.5146C91.5744 44.5483 92.3409 43.4011 92.8639 42.1386C93.3869 40.876 93.656 39.5228 93.656 38.1563C93.656 36.7897 93.3869 35.4365 92.8639 34.174C92.3409 32.9114 91.5744 31.7642 90.6081 30.7979C89.6418 29.8316 88.4946 29.0651 87.2321 28.5421C85.9695 28.0192 84.6163 27.75 83.2498 27.75C80.4899 27.75 77.843 28.8464 75.8914 30.7979C73.9399 32.7495 72.8435 35.3963 72.8435 38.1563C72.8435 40.9162 73.9399 43.563 75.8914 45.5146C77.843 47.4661 80.4899 48.5625 83.2498 48.5625Z" fill="#DC43B7"/>
</svg>
