<svg width="95" height="95" viewBox="0 0 101 101" fill="none" xmlns="http://www.w3.org/2000/svg">
<path d="M71.5442 86.6181C62.0454 92.1008 54.2586 91.2569 54.169 85.859L53.832 65.3895C53.923 64.4706 54.2315 63.5866 54.732 62.8107C55.2326 62.0347 55.9108 61.3892 56.7104 60.9275C57.5101 60.4658 58.4083 60.2012 59.3305 60.1557C60.2528 60.1101 61.1726 60.2849 62.0139 60.6656L79.5709 71.1926C84.2197 73.9787 81.0405 81.1351 71.5442 86.6181Z" stroke="#48EE80" stroke-width="3.21314" stroke-linecap="round" stroke-linejoin="round"/>
<path d="M92.3021 50.3351C92.3021 61.301 87.6754 67.623 82.9563 65.0015L65.0598 55.059C64.3101 54.5206 63.6994 53.8114 63.2782 52.9902C62.8569 52.169 62.6372 51.2593 62.6372 50.3363C62.6372 49.4134 62.8569 48.5037 63.2782 47.6824C63.6994 46.8612 64.3101 46.1521 65.0598 45.6137L82.9563 35.6687C87.6948 33.0375 92.3021 39.3691 92.3021 50.3351Z" stroke="#48EE80" stroke-width="3.21314" stroke-linecap="round" stroke-linejoin="round"/>
<path d="M71.2576 14.2173C80.7545 19.6989 83.9161 26.8658 79.2867 29.6425L61.7272 40.1695C60.8861 40.5499 59.9664 40.7245 59.0444 40.6788C58.1224 40.6332 57.2245 40.3685 56.4251 39.9068C55.6257 39.4452 54.9477 38.7997 54.4474 38.0239C53.9471 37.2481 53.6387 36.3643 53.5479 35.4456L53.8849 14.9761C53.9747 9.55877 61.7613 8.73427 71.2576 14.2173Z" stroke="#48EE80" stroke-width="3.21314" stroke-linecap="round" stroke-linejoin="round"/>
<path d="M29.4559 14.3819C38.9547 8.89916 46.7416 9.74306 46.8311 15.141L47.1681 35.6116C47.0772 36.5305 46.7687 37.4145 46.2681 38.1905C45.7676 38.9664 45.0894 39.6119 44.2897 40.0736C43.49 40.5353 42.5919 40.7999 41.6696 40.8454C40.7474 40.891 39.8275 40.7162 38.9863 40.3355L21.4293 29.8085C16.7805 27.021 19.9598 19.866 29.4559 14.3819Z" stroke="#48EE80" stroke-width="3.21314" stroke-linecap="round" stroke-linejoin="round"/>
<path d="M8.69824 50.6649C8.69824 39.6989 13.3251 33.377 18.0441 35.9985L35.9406 45.941C36.6902 46.4794 37.3009 47.1886 37.7222 48.0098C38.1434 48.831 38.3631 49.7407 38.3631 50.6637C38.3631 51.5866 38.1434 52.4963 37.7222 53.3175C37.3009 54.1388 36.6902 54.8479 35.9406 55.3863L18.0441 65.3313C13.3055 67.9625 8.69824 61.6309 8.69824 50.6649Z" stroke="#48EE80" stroke-width="3.21314" stroke-linecap="round" stroke-linejoin="round"/>
<path d="M29.7424 86.7829C20.2454 81.3 17.0839 74.1339 21.7133 71.3575L39.2728 60.8316C40.1139 60.4512 41.0335 60.2766 41.9556 60.3222C42.8776 60.3679 43.7755 60.6325 44.5749 61.0942C45.3743 61.5559 46.0522 62.2014 46.5526 62.9772C47.0529 63.753 47.3613 64.6368 47.4521 65.5555L47.1151 86.025C47.0265 91.4412 39.2387 92.2657 29.7424 86.7829Z" stroke="#48EE80" stroke-width="3.21314" stroke-linecap="round" stroke-linejoin="round"/>
<path d="M50.5005 56.5771C53.8568 56.5771 56.5777 53.8563 56.5777 50.5C56.5777 47.1437 53.8568 44.4228 50.5005 44.4228C47.1442 44.4228 44.4233 47.1437 44.4233 50.5C44.4233 53.8563 47.1442 56.5771 50.5005 56.5771Z" stroke="#48EE80" stroke-width="3.21314" stroke-linecap="round" stroke-linejoin="round"/>
<path d="M50.5 99C77.2858 99 99 77.2858 99 50.5C99 23.7142 77.2858 2 50.5 2C23.7142 2 2 23.7142 2 50.5C2 77.2858 23.7142 99 50.5 99Z" stroke="#48EE80" stroke-width="3.21314" stroke-linecap="round" stroke-linejoin="round"/>
</svg>
