<?xml version="1.0" encoding="utf-8"?>
<!-- Generator: Adobe Illustrator 28.3.0, SVG Export Plug-In . SVG Version: 6.00 Build 0)  -->
<svg version="1.1" id="Layer_1" xmlns="http://www.w3.org/2000/svg" xmlns:xlink="http://www.w3.org/1999/xlink" x="0px" y="0px"
	 viewBox="0 0 500 500" style="enable-background:new 0 0 500 500;" xml:space="preserve">
<style type="text/css">
	.st0{fill:#FFFFFF;}
	.st1{fill:#7ED957;}
	.st2{clip-path:url(#SVGID_00000129178850066584804760000007648843572560159925_);}
	.st3{clip-path:url(#SVGID_00000141418027408423151910000007079057339167272610_);}
	.st4{clip-path:url(#SVGID_00000116216988616845153070000013316164251013186229_);}
	.st5{clip-path:url(#SVGID_00000142867598926369868330000014353478622195060369_);}
	.st6{clip-path:url(#SVGID_00000071528451739652154580000004213097098221327538_);}
	.st7{fill:#39B54A;}
	.st8{clip-path:url(#SVGID_00000134963065578284131410000005514678754070107021_);}
	.st9{clip-path:url(#SVGID_00000067216944874299012260000000172977825587912322_);}
	.st10{clip-path:url(#SVGID_00000099640205795276785150000004179813008385446533_);}
	.st11{clip-path:url(#SVGID_00000081648666061869385080000013412892267700478387_);}
	.st12{fill:#00338C;}
</style>
<rect x="-53.1" y="-54.4" class="st0" width="600" height="600"/>
<g>
	<g transform="translate(166.404288, 266.739268)">
		<g>
			<path class="st1" d="M148.2,55.5c6.3-5.6,5.9-12.2,0.4-19.8l-14.2-18.1c12.3-15.3,18.3-34.2,17.8-53.1s-7.3-37.4-21-52.8
				c-10.1-11.3-22.7-19.3-36.4-23.8c-13.6-4.4-28.1-5.2-42.1-2.5c-14.1,2.9-27.6,9.4-38.9,19.4C2.2-84.9-5.7-72.4-10.1-58.8
				c-4.5,13.7-5.3,28.2-2.5,42.2C-9.7-2.5-3.3,11,6.8,22.4c13.7,15.4,31.6,24.3,50.3,26.9c18.8,2.7,38.2-1.1,54.8-11.5l16.2,16.1
				C134.7,59.8,141.6,61.3,148.2,55.5z M30.1,1.6c-9.6-10.9-14-24.5-13.5-38S23-63,33.8-72.6c10.9-9.7,24.6-13.9,38.1-12.9
				c13.4,1.1,26.4,7,36,17.9c9.7,10.8,14.3,24.6,13.8,38.1c-0.5,13.6-6.3,26.8-17.2,36.5c-10.8,9.5-24.5,13.7-38,12.6
				C52.9,18.6,39.8,12.5,30.1,1.6z"/>
		</g>
	</g>
</g>
<g>
	<g>
		<rect id="SVGID_1_" x="63.8" y="218" class="st0" width="202.2" height="43.9"/>
	</g>
	<g>
		<defs>
			<rect id="SVGID_00000083064046586185632160000016208143803598652579_" x="63.8" y="218" width="202.2" height="43.9"/>
		</defs>
		<clipPath id="SVGID_00000039103628258366793720000000393481753108636549_">
			<use xlink:href="#SVGID_00000083064046586185632160000016208143803598652579_"  style="overflow:visible;"/>
		</clipPath>
		<g style="clip-path:url(#SVGID_00000039103628258366793720000000393481753108636549_);">
			<path class="st0" d="M63.8,218H266v43.9H63.8V218z"/>
		</g>
	</g>
</g>
<g>
	<g>
		<defs>
			<rect id="SVGID_00000037658677128352443560000000404601576575406991_" x="280.7" y="136.7" width="50.7" height="33.3"/>
		</defs>
		<clipPath id="SVGID_00000131325471479683626320000000253187483091189896_">
			<use xlink:href="#SVGID_00000037658677128352443560000000404601576575406991_"  style="overflow:visible;"/>
		</clipPath>
		<g style="clip-path:url(#SVGID_00000131325471479683626320000000253187483091189896_);">
			<g>
				<g>
					<defs>
						
							<rect id="SVGID_00000110438445709546425800000010332283253504990129_" x="271.7" y="111.1" transform="matrix(0.508 -0.8614 0.8614 0.508 18.1328 324.0068)" width="42" height="70"/>
					</defs>
					<clipPath id="SVGID_00000000189983197101399850000011063643650706155664_">
						<use xlink:href="#SVGID_00000110438445709546425800000010332283253504990129_"  style="overflow:visible;"/>
					</clipPath>
					<g style="clip-path:url(#SVGID_00000000189983197101399850000011063643650706155664_);">
						<g>
							<g>
								<defs>
									
										<rect id="SVGID_00000029018456886712812460000012654814153890876050_" x="271.7" y="111.1" transform="matrix(0.508 -0.8614 0.8614 0.508 18.1328 324.0068)" width="42" height="70"/>
								</defs>
								<clipPath id="SVGID_00000035497804935892205270000010458920520676730804_">
									<use xlink:href="#SVGID_00000029018456886712812460000012654814153890876050_"  style="overflow:visible;"/>
								</clipPath>
								<g style="clip-path:url(#SVGID_00000035497804935892205270000010458920520676730804_);">
									<g>
										<g>
											<defs>
												
													<rect id="SVGID_00000139271664659066086990000010878264703164555196_" x="271.7" y="111.1" transform="matrix(0.508 -0.8614 0.8614 0.508 18.1328 324.0068)" width="42" height="70"/>
											</defs>
											<clipPath id="SVGID_00000013907733867157349880000001898643279951389836_">
												<use xlink:href="#SVGID_00000139271664659066086990000010878264703164555196_"  style="overflow:visible;"/>
											</clipPath>
											<g style="clip-path:url(#SVGID_00000013907733867157349880000001898643279951389836_);">
												<path class="st7" d="M281,160.9c0.5-3.9,2-11.3,7.9-16.6c9.6-8.8,27-8.8,41.9,1.3c-5.6,14.3-17.9,23.5-30.7,23.3
													c-8.6-0.1-15-4.5-17.9-6.8c4.7-0.5,10.2-1.5,16.1-3.3c9.2-2.8,16.5-6.7,21.9-10.1c-6.5,2.8-13.9,5.6-22.2,8.1
													C292,158.6,286.3,159.9,281,160.9z"/>
											</g>
										</g>
									</g>
								</g>
							</g>
						</g>
					</g>
				</g>
			</g>
		</g>
	</g>
</g>
<g>
	<g>
		<defs>
			<rect id="SVGID_00000062883832619745014570000013025615353659072690_" x="259.7" y="119.7" width="24" height="38.7"/>
		</defs>
		<clipPath id="SVGID_00000018945960538018742950000012840726825426051764_">
			<use xlink:href="#SVGID_00000062883832619745014570000013025615353659072690_"  style="overflow:visible;"/>
		</clipPath>
		<g style="clip-path:url(#SVGID_00000018945960538018742950000012840726825426051764_);">
			<g>
				<g>
					<defs>
						
							<rect id="SVGID_00000150810084846543740010000017027953746194401440_" x="270.7" y="110.1" transform="matrix(0.508 -0.8614 0.8614 0.508 18.5022 322.6534)" width="42" height="70"/>
					</defs>
					<clipPath id="SVGID_00000005960033805825773660000014985996027210746796_">
						<use xlink:href="#SVGID_00000150810084846543740010000017027953746194401440_"  style="overflow:visible;"/>
					</clipPath>
					<g style="clip-path:url(#SVGID_00000005960033805825773660000014985996027210746796_);">
						<g>
							<g>
								<defs>
									
										<rect id="SVGID_00000145759073315214224020000007518480802844818098_" x="270.7" y="110.1" transform="matrix(0.508 -0.8614 0.8614 0.508 18.5022 322.6534)" width="42" height="70"/>
								</defs>
								<clipPath id="SVGID_00000132798543296399661230000010966764064494769560_">
									<use xlink:href="#SVGID_00000145759073315214224020000007518480802844818098_"  style="overflow:visible;"/>
								</clipPath>
								<g style="clip-path:url(#SVGID_00000132798543296399661230000010966764064494769560_);">
									<g>
										<g>
											<defs>
												
													<rect id="SVGID_00000138552380304117834170000003081149893871692469_" x="270.7" y="110.1" transform="matrix(0.508 -0.8614 0.8614 0.508 18.5022 322.6534)" width="42" height="70"/>
											</defs>
											<clipPath id="SVGID_00000156557712672823949640000004239569316634854828_">
												<use xlink:href="#SVGID_00000138552380304117834170000003081149893871692469_"  style="overflow:visible;"/>
											</clipPath>
											<g style="clip-path:url(#SVGID_00000156557712672823949640000004239569316634854828_);">
												<path class="st7" d="M275.7,157.8c-2.8-0.7-8.1-2.5-11.5-7.2c-5.6-7.8-4.3-20.4,4.4-30.4c10,5.4,15.7,15.1,14.6,24.4
													c-0.8,6.3-4.5,10.5-6.4,12.4c0-3.4-0.3-7.5-1.1-12c-1.3-7-3.5-12.6-5.6-16.8c1.5,5,3,10.6,4.1,16.9
													C274.9,149.6,275.4,153.9,275.7,157.8z"/>
											</g>
										</g>
									</g>
								</g>
							</g>
						</g>
					</g>
				</g>
			</g>
		</g>
	</g>
</g>
<g>
	<g transform="translate(118.775606, 191.546094)">
		<g>
			<path class="st12" d="M18,66.8c1.5,0,2.3-0.9,2.5-2.6l0.2-4.2c3.5-0.6,6.6-2.5,8.8-5.1s3.5-6,3.5-9.8c0-2.8-0.8-5.4-2.1-7.7
				c-1.3-2.3-3.1-4.2-5.4-5.5s-4.9-2.1-7.6-2.1s-5.4,0.7-7.6,2.1c-2.2,1.3-4.1,3.2-5.4,5.5s-2,4.9-2,7.7c0,3.8,1.4,7.2,3.5,9.8
				c2.2,2.7,5.3,4.5,8.8,5.1l0.3,4.2C15.7,65.8,16.4,66.8,18,66.8z M8.6,45c0-2.6,1.1-5.1,2.8-6.9c1.7-1.8,4.1-2.8,6.7-2.8
				c2.7,0,5,1.1,6.7,2.8c1.7,1.8,2.7,4.2,2.7,6.9c0,2.6-1,5.1-2.7,6.9c-1.7,1.8-4.1,2.9-6.7,2.9s-5-1.1-6.7-2.9
				C9.6,50.1,8.6,47.7,8.6,45z"/>
		</g>
	</g>
</g>
<g>
	<g transform="translate(131.886203, 191.546094)">
		<g>
			<path class="st12" d="M47.4,37.7c-0.5-0.5-1.2-0.8-2-0.8s-1.5,0.3-2,0.8s-0.8,1.2-0.8,2v8.9c0,1.7-0.8,3.3-2,4.4
				c-1.2,1.2-2.8,2-4.5,2s-3.2-0.7-4.2-1.9c-1.1-1.1-1.7-2.7-1.7-4.5v-8.9c0-0.8-0.3-1.5-0.8-2s-1.2-0.8-2-0.8s-1.5,0.3-2,0.9
				c-0.5,0.5-0.8,1.2-0.8,1.9v8.9c0,3.2,1.1,6.2,3,8.3s4.6,3.4,7.8,3.4c1.7,0,3.4-0.4,5.1-1.2c1.3-0.6,2.5-1.5,3.5-2.5l0.2,1
				c0.4,2.1,1.3,2.7,2.5,2.7c1,0,1.5-0.5,1.5-1.5V39.6C48.3,38.8,48,38.1,47.4,37.7z"/>
		</g>
	</g>
</g>
<g>
	<g transform="translate(143.511657, 191.546094)">
		<g>
			<path class="st12" d="M64.4,36.9c-1.2,0-2.1,0.7-2.5,2.7l-0.3,0.6c-1.8-2.1-4.4-3.4-7.7-3.4s-6.3,1.3-8.5,3.4s-3.6,5.1-3.6,8.3
				s1.4,6.2,3.6,8.3c2.2,2.1,5.2,3.4,8.5,3.4c3.2,0,5.8-1.2,7.6-3.2l0.4,1.4c0.4,1.1,1.1,1.8,2.3,1.8c1.2,0,1.8-0.6,1.8-1.8v-20
				C65.9,37.4,65.4,36.9,64.4,36.9z M58.3,53.1c-1.1,1.1-2.7,1.9-4.4,1.9c-1.8,0-3.3-0.7-4.5-1.9c-1.1-1.1-1.8-2.7-1.8-4.5
				s0.7-3.3,1.8-4.5c1.2-1.1,2.7-1.9,4.5-1.9s3.3,0.7,4.4,1.9s1.8,2.7,1.8,4.5S59.4,51.9,58.3,53.1z"/>
		</g>
	</g>
</g>
<g>
	<g transform="translate(154.849181, 191.546094)">
		<g>
			<path class="st12" d="M76.3,38.9c-0.5-0.5-1.2-0.8-2.1-0.8h-2.5v-4.8c0-0.8-0.4-1.4-0.9-1.9s-1.3-0.8-2.1-0.8
				c-0.8,0-1.6,0.3-2.1,0.8s-0.8,1.2-0.8,1.9v4.8h-2.4c-0.8,0-1.6,0.3-2,0.8c-0.6,0.5-0.9,1.2-0.9,1.9s0.3,1.4,0.9,1.9
				c0.5,0.5,1.2,0.8,2,0.8h2.4V58c0,0.8,0.3,1.4,0.8,1.9s1.3,0.8,2.1,0.8c0.8,0,1.6-0.3,2.1-0.8s0.9-1.2,0.9-1.9V43.5h2.5
				c0.8,0,1.6-0.3,2.1-0.8s0.8-1.1,0.8-1.9S76.8,39.4,76.3,38.9z"/>
		</g>
	</g>
</g>
<g>
	<g transform="translate(162.739066, 191.546094)">
		<g>
			<path class="st12" d="M89.9,37.4c-1.3-0.4-2.8-0.5-4-0.4c-1.5,0.2-2.9,0.9-4.1,1.7c-0.9,0.6-1.6,1.2-2.2,1.9l-0.2-0.9
				C79,37.6,78.1,37,76.9,37c-1,0-1.5,0.5-1.5,1.5v19.2c0,0.8,0.3,1.5,0.8,2s1.2,0.8,2,0.8c0.7,0,1.5-0.3,2-0.8s0.8-1.2,0.8-2V48
				c0-0.6,0.2-1.3,0.4-1.9c0.4-1.1,1.1-2.1,2-2.7c0.9-0.7,2-1.1,3.1-1c0.5,0,1.1,0,1.6,0.1c1.3,0,1.9,0,2.6-0.4
				c0.6-0.4,1.2-1.1,1.2-2C92.2,38.7,91.2,37.9,89.9,37.4z"/>
		</g>
	</g>
</g>
<g>
	<g transform="translate(171.629151, 191.546094)">
		<g>
			<path class="st12" d="M86.7,48.8c0,3.3,1.3,6.3,3.4,8.5s4.9,3.5,8.1,3.5s6.1-1.4,8.1-3.5c2.1-2.2,3.4-5.2,3.4-8.5
				s-1.3-6.3-3.4-8.5s-4.9-3.5-8.1-3.5s-6,1.4-8.1,3.5C88,42.5,86.7,45.5,86.7,48.8z M92.2,48.8c0-1.8,0.7-3.4,1.7-4.5
				c1.1-1.2,2.5-1.9,4.2-1.9s3.2,0.7,4.2,1.9c1.1,1.2,1.7,2.8,1.7,4.5c0,1.8-0.6,3.4-1.7,4.6c-1.1,1.2-2.5,1.9-4.2,1.9
				s-3.2-0.7-4.2-1.9C92.9,52.2,92.2,50.6,92.2,48.8z"/>
		</g>
	</g>
</g>
</svg>
