<?xml version="1.0" encoding="utf-8"?>
<!-- Generator: Adobe Illustrator 28.3.0, SVG Export Plug-In . SVG Version: 6.00 Build 0)  -->
<svg version="1.1" id="Layer_1" xmlns="http://www.w3.org/2000/svg" xmlns:xlink="http://www.w3.org/1999/xlink" x="0px" y="0px"
	 viewBox="0 0 500 500" style="enable-background:new 0 0 500 500;" xml:space="preserve">
<style type="text/css">
	.st0{fill:#7ED957;}
	.st1{clip-path:url(#SVGID_00000125585866900435312220000017563754786251307947_);}
	.st2{clip-path:url(#SVGID_00000084499715220928525100000017509256410418559393_);}
	.st3{clip-path:url(#SVGID_00000034082107023159321120000001307988228378529959_);}
	.st4{clip-path:url(#SVGID_00000183250297494354911190000016978308340876944523_);}
	.st5{fill:#39B54A;}
	.st6{clip-path:url(#SVGID_00000172432753068904909620000008325162842346559631_);}
	.st7{clip-path:url(#SVGID_00000011012431291651280680000002704411954653359506_);}
	.st8{clip-path:url(#SVGID_00000167379385248992972840000005808321766614158208_);}
	.st9{clip-path:url(#SVGID_00000000192416672541215030000018120384929187396022_);}
	.st10{fill:#00338C;}
</style>
<path class="st0" d="M453.4,433.7l-32.9-41.9c28.5-35.4,42.4-79.2,41.2-123c-1.2-43.8-16.9-86.6-48.6-122.3
	c-23.4-26.2-52.6-44.7-84.3-55.1c-31.5-10.2-65.1-12-97.5-5.8c-32.7,6.7-63.9,21.8-90.1,44.9c-26.9,23.9-45.2,52.8-55.3,84.3
	c-2.5,7.9-4.6,16-6.3,24.3h72.5c6-21.1,17.8-40.5,35.4-56.3c25.2-22.5,57-32.2,88.2-29.9c31,2.5,61.1,16.2,83.4,41.5
	c22.5,25,33.1,57,32,88.2c-1.2,31.5-14.6,62.1-39.8,84.5c-25,22-56.7,31.7-88,29.2c-31.5-2.3-61.8-16.4-84.3-41.7
	c-3.9-4.4-7.4-9-10.4-13.7H88.2c8.1,22.2,20.4,43.3,36.8,61.8c31.7,35.7,73.2,56.3,116.5,62.3c43.5,6.3,88.5-2.5,126.9-26.6
	l37.5,37.3c15.3,13.7,31.3,17.1,46.5,3.7C467.1,466.5,466.1,451.3,453.4,433.7z"/>
<g>
	<g>
		<g>
			<g>
				<g>
					<defs>
						<rect id="SVGID_1_" x="378.6" y="50" width="117.4" height="77.1"/>
					</defs>
					<clipPath id="SVGID_00000051350553511384691940000002317585196913478077_">
						<use xlink:href="#SVGID_1_"  style="overflow:visible;"/>
					</clipPath>
					<g style="clip-path:url(#SVGID_00000051350553511384691940000002317585196913478077_);">
						<g>
							<g>
								<g>
									<g>
										<g>
											<defs>
												
													<rect id="SVGID_00000139282948391869195070000015889452021445327488_" x="357.8" y="-9.4" transform="matrix(0.508 -0.8614 0.8614 0.508 138.2445 385.3947)" width="97.3" height="162.1"/>
											</defs>
											<clipPath id="SVGID_00000090296150731667394680000009564635054800349313_">
												<use xlink:href="#SVGID_00000139282948391869195070000015889452021445327488_"  style="overflow:visible;"/>
											</clipPath>
											<g style="clip-path:url(#SVGID_00000090296150731667394680000009564635054800349313_);">
												<g>
													<g>
														<g>
															<g>
																<g>
																	<defs>
																		
																			<rect id="SVGID_00000139284555137236122370000015448825903958703039_" x="357.8" y="-9.4" transform="matrix(0.508 -0.8614 0.8614 0.508 138.2444 385.3946)" width="97.3" height="162.1"/>
																	</defs>
																	<clipPath id="SVGID_00000037658921504273135030000009056271682043987618_">
																		<use xlink:href="#SVGID_00000139284555137236122370000015448825903958703039_"  style="overflow:visible;"/>
																	</clipPath>
																	<g style="clip-path:url(#SVGID_00000037658921504273135030000009056271682043987618_);">
																		<g>
																			<g>
																				<g>
																					<g>
																						<g>
																							<defs>
																								
																									<rect id="SVGID_00000173126997430427534640000003005469072523076490_" x="357.8" y="-9.4" transform="matrix(0.508 -0.8614 0.8614 0.508 138.2444 385.3946)" width="97.3" height="162.1"/>
																							</defs>
																							<clipPath id="SVGID_00000008148815151057321110000004122114165825908921_">
																								
																									<use xlink:href="#SVGID_00000173126997430427534640000003005469072523076490_"  style="overflow:visible;"/>
																							</clipPath>
																							<g style="clip-path:url(#SVGID_00000008148815151057321110000004122114165825908921_);">
																								<path class="st5" d="M379.3,106c1.2-9,4.6-26.2,18.3-38.4c22.2-20.4,62.5-20.4,97,3
																									c-13,33.1-41.5,54.4-71.1,54c-19.9-0.2-34.7-10.4-41.5-15.7c10.9-1.2,23.6-3.5,37.3-7.6
																									c21.3-6.5,38.2-15.5,50.7-23.4c-15.1,6.5-32.2,13-51.4,18.8C404.8,100.7,391.6,103.7,379.3,106z"/>
																							</g>
																						</g>
																					</g>
																				</g>
																			</g>
																		</g>
																	</g>
																</g>
															</g>
														</g>
													</g>
												</g>
											</g>
										</g>
									</g>
								</g>
							</g>
						</g>
					</g>
				</g>
			</g>
		</g>
	</g>
</g>
<g>
	<g>
		<g>
			<g>
				<g>
					<defs>
						<rect id="SVGID_00000170258194129615984030000000475791484453871745_" x="330" y="10.6" width="55.6" height="89.6"/>
					</defs>
					<clipPath id="SVGID_00000072277719434434419000000005095972523642479239_">
						<use xlink:href="#SVGID_00000170258194129615984030000000475791484453871745_"  style="overflow:visible;"/>
					</clipPath>
					<g style="clip-path:url(#SVGID_00000072277719434434419000000005095972523642479239_);">
						<g>
							<g>
								<g>
									<g>
										<g>
											<defs>
												
													<rect id="SVGID_00000138534466693218892970000000267749337266911112_" x="355.5" y="-11.7" transform="matrix(0.508 -0.8614 0.8614 0.508 139.0997 382.2606)" width="97.3" height="162.1"/>
											</defs>
											<clipPath id="SVGID_00000131363505631374571390000017704116858265491633_">
												<use xlink:href="#SVGID_00000138534466693218892970000000267749337266911112_"  style="overflow:visible;"/>
											</clipPath>
											<g style="clip-path:url(#SVGID_00000131363505631374571390000017704116858265491633_);">
												<g>
													<g>
														<g>
															<g>
																<g>
																	<defs>
																		
																			<rect id="SVGID_00000060715486598883040750000013012593381019007631_" x="355.5" y="-11.7" transform="matrix(0.508 -0.8614 0.8614 0.508 139.0997 382.2606)" width="97.3" height="162.1"/>
																	</defs>
																	<clipPath id="SVGID_00000067216394243275103080000014596219738949884811_">
																		<use xlink:href="#SVGID_00000060715486598883040750000013012593381019007631_"  style="overflow:visible;"/>
																	</clipPath>
																	<g style="clip-path:url(#SVGID_00000067216394243275103080000014596219738949884811_);">
																		<g>
																			<g>
																				<g>
																					<g>
																						<g>
																							<defs>
																								
																									<rect id="SVGID_00000114068024346472692050000014611413960201963676_" x="355.5" y="-11.7" transform="matrix(0.508 -0.8614 0.8614 0.508 139.0996 382.2607)" width="97.3" height="162.1"/>
																							</defs>
																							<clipPath id="SVGID_00000051356933582842144650000000315734474695296670_">
																								
																									<use xlink:href="#SVGID_00000114068024346472692050000014611413960201963676_"  style="overflow:visible;"/>
																							</clipPath>
																							<g style="clip-path:url(#SVGID_00000051356933582842144650000000315734474695296670_);">
																								<path class="st5" d="M367,98.8c-6.5-1.6-18.8-5.8-26.6-16.7c-13-18.1-10-47.2,10.2-70.4
																									c23.2,12.5,36.4,35,33.8,56.5C382.5,82.8,374,92.6,369.6,97c0-7.9-0.7-17.4-2.5-27.8
																									c-3-16.2-8.1-29.2-13-38.9c3.5,11.6,6.9,24.5,9.5,39.1C365.2,79.8,366.3,89.8,367,98.8z"/>
																							</g>
																						</g>
																					</g>
																				</g>
																			</g>
																		</g>
																	</g>
																</g>
															</g>
														</g>
													</g>
												</g>
											</g>
										</g>
									</g>
								</g>
							</g>
						</g>
					</g>
				</g>
			</g>
		</g>
	</g>
</g>
<g>
	<g transform="translate(118.775606, 191.546094)">
		<g>
			<path class="st10" d="M-80.4,142.4c3.5,0,5.3-2.1,5.8-6l0.5-9.7c8.1-1.4,15.3-5.8,20.4-11.8s8.1-13.9,8.1-22.7
				c0-6.5-1.9-12.5-4.9-17.8s-7.2-9.7-12.5-12.7s-11.3-4.9-17.6-4.9s-12.5,1.6-17.6,4.9c-5.1,3-9.5,7.4-12.5,12.7
				s-4.6,11.3-4.6,17.8c0,8.8,3.2,16.7,8.1,22.7c5.1,6.3,12.3,10.4,20.4,11.8l0.7,9.7C-85.7,140.1-84.1,142.4-80.4,142.4z
				 M-102.2,91.9c0-6,2.5-11.8,6.5-16c3.9-4.2,9.5-6.5,15.5-6.5c6.3,0,11.6,2.5,15.5,6.5c3.9,4.2,6.3,9.7,6.3,16
				c0,6-2.3,11.8-6.3,16c-3.9,4.2-9.5,6.7-15.5,6.7c-6,0-11.6-2.5-15.5-6.7C-99.9,103.8-102.2,98.2-102.2,91.9z"/>
		</g>
	</g>
</g>
<g>
	<g transform="translate(154.849181, 191.546094)">
		<g>
			<path class="st10" d="M99.7,77.8C98.6,76.7,97,76,94.9,76h-5.8V64.8c0-1.9-0.9-3.2-2.1-4.4c-1.2-1.2-3-1.9-4.9-1.9
				c-1.9,0-3.7,0.7-4.9,1.9c-1.2,1.2-1.9,2.8-1.9,4.4V76h-5.6c-1.9,0-3.7,0.7-4.6,1.9c-1.4,1.2-2.1,2.8-2.1,4.4
				c0,1.6,0.7,3.2,2.1,4.4c1.2,1.2,2.8,1.9,4.6,1.9h5.6V122c0,1.9,0.7,3.2,1.9,4.4c1.2,1.2,3,1.9,4.9,1.9c1.9,0,3.7-0.7,4.9-1.9
				s2.1-2.8,2.1-4.4V88.5h5.8c1.9,0,3.7-0.7,4.9-1.9s1.9-2.5,1.9-4.4C101.6,80.4,100.9,79,99.7,77.8z"/>
		</g>
	</g>
</g>
<g>
	<g transform="translate(162.739066, 191.546094)">
		<g>
			<path class="st10" d="M141.6,74.3c-3-0.9-6.5-1.2-9.3-0.9c-3.5,0.5-6.7,2.1-9.5,3.9c-2.1,1.4-3.7,2.8-5.1,4.4l-0.2-1.9
				c-0.2-1.4-0.5-2.8-0.7-3.7c-0.7-1.6-1.4-2.8-4.2-2.8c-3,0-4.4,1.6-4.4,3.5v44.5c0,1.9,0.7,3.5,1.9,4.6s2.8,1.9,4.6,1.9
				c1.6,0,3.5-0.7,4.6-1.9c1.2-1.2,1.9-2.8,1.9-4.6l0.2-21.8c0-1.4,0.2-3.7,0.7-5.1c0.9-2.5,2.5-4.9,4.6-6.3
				c2.1-1.6,4.6-2.5,7.2-2.3c1.2,0,2.5,0,3.7,0.2c3,0,4.4,0,6-0.9c1.4-0.9,2.8-2.5,2.8-4.6C146,77.6,144.6,75.5,141.6,74.3z"/>
		</g>
	</g>
</g>
<g>
	<g transform="translate(171.629151, 191.546094)">
		<g>
			<path class="st10" d="M145.9,100.7c0,7.6,3,14.6,7.9,19.7s11.3,8.1,18.8,8.1c7.4,0,14.1-3.2,18.8-8.1c4.9-5.1,7.9-12,7.9-19.7
				s-3-14.6-7.9-19.7S179.9,73,172.5,73c-7.4,0-13.9,3.2-18.8,8.1C148.9,86.2,145.9,93.1,145.9,100.7z M158.6,100.7
				c0-4.2,1.6-7.9,3.9-10.4c2.5-2.8,5.8-4.4,9.7-4.4c3.9,0,7.4,1.6,9.7,4.4c2.5,2.8,3.9,6.5,3.9,10.4c0,4.2-1.4,7.9-3.9,10.7
				c-2.5,2.8-5.8,4.4-9.7,4.4c-3.9,0-7.4-1.6-9.7-4.4C160.3,108.6,158.6,104.9,158.6,100.7z"/>
		</g>
	</g>
</g>
<path class="st10" d="M137.1,267.2c-1.2-1.4-2.8-2.1-4.6-2.1s-3.5,0.7-4.6,1.9c-1.2,1.2-1.9,2.8-1.9,4.6v20.6
	c0,4.2-1.4,7.9-3.9,10.4c-2.3,2.5-5.6,4.2-9.3,4.4c-3.7-0.2-6.9-1.6-9.3-4.4c-2.5-2.5-3.9-6.3-3.9-10.4v-20.6c0-1.9-0.7-3.5-1.9-4.6
	c-1.2-1.2-2.8-1.9-4.6-1.9s-3.5,0.7-4.6,2.1c-1.2,1.2-1.9,2.8-1.9,4.4v20.6c0,7.4,2.5,14.4,6.9,19.2c4.4,4.9,10.7,7.9,18.1,7.9
	c0.5,0,0.7,0,1.2,0c0.5,0,0.7,0,1.2,0c7.4,0,13.7-3,18.1-7.9c4.4-4.9,6.9-11.8,6.9-19.2v-20.6C138.9,270,138.2,268.3,137.1,267.2z"
	/>
<path class="st10" d="M207,300.5l-0.2-8.6c-0.9-17.4-13.9-27.3-26.2-27.3c-0.5,0-0.9,0-1.6,0c-7.6,0-14.6,3-19.7,7.9
	c-5.1,4.9-8.3,11.8-8.3,19.2v0.2v0.2c0,7.4,3.2,14.4,8.3,19.2c5.1,4.9,12,7.9,19.7,7.9c7.6,0,13.7-3,17.8-7.9l0.7,1.4
	c2.1,3.7,2.5,5.6,5.6,5.6c3,0,3.9-1.9,4.2-4.6L207,300.5z M178.5,307c-8.3,0-15.5-7.2-15.5-15.5s7.2-15.1,15.5-15.1
	c8.1,0,14.6,5.1,15.5,15.7C194.7,301.9,186.9,307,178.5,307z"/>
</svg>
