<svg width="95" height="95" viewBox="0 0 103 103" fill="none" xmlns="http://www.w3.org/2000/svg">
<path d="M85.5108 75.4348C87.6042 73.0427 89.4147 70.4432 90.8042 67.6332C93.0109 63.1634 94.2431 58.2189 94.2431 53.0388C94.2431 49.4239 93.5641 45.9442 92.3633 42.6816C90.5652 37.7875 87.6044 33.3774 83.9833 29.5898C80.3622 25.8051 76.0716 22.6367 71.5483 20.2385L71.5326 20.229L71.5107 20.2164C67.3237 18.1009 64.2685 16.171 61.999 14.4798C60.2985 13.213 59.038 12.0814 58.0605 11.0912C57.328 10.3525 56.7561 9.69247 56.2656 9.10143C55.9009 8.65825 55.5867 8.25268 55.2787 7.87247C55.0461 7.5864 54.8261 7.31301 54.5808 7.04585C54.3986 6.84468 54.2036 6.64673 53.9836 6.45179C53.6504 6.16573 53.2481 5.87966 52.7576 5.67547C52.2736 5.46806 51.7172 5.36426 51.1923 5.36426C50.8213 5.36426 50.4379 5.41455 50.0764 5.51836C49.7338 5.61572 49.4131 5.75735 49.1303 5.92392C48.8631 6.08103 48.6306 6.25404 48.423 6.4363C48.0363 6.76944 47.7283 7.11848 47.4296 7.47355C46.9077 8.10221 46.4018 8.78116 45.7102 9.58907C45.1915 10.1894 44.5753 10.8621 43.799 11.6102C42.6328 12.7294 41.1021 14.0211 39.0117 15.4639C36.9183 16.9067 34.2685 18.5004 30.8705 20.2166L30.8548 20.226L30.8329 20.2387C24.8072 23.4385 19.1869 27.9995 15.019 33.579C12.935 36.3703 11.2186 39.4192 10.018 42.682C8.82047 45.9449 8.14151 49.4213 8.14151 53.0392C8.14151 58.2226 9.38636 63.1543 11.5993 67.6147C12.9823 70.4027 14.7772 72.9803 16.8454 75.366C13.4036 76.7899 2.40188 82.1053 0.000488281 92.5787C22.4438 104.061 43.5669 91.6767 47.4803 86.4806C47.9675 86.3548 48.4453 86.2197 48.9231 86.0531C49.2216 85.9493 49.5204 85.8235 49.8159 85.7043C51.7584 86.4084 53.7514 86.8548 55.7504 87.103C60.2102 92.4526 80.9718 104.177 103 92.9084C100.416 81.6366 87.8681 76.3369 85.5108 75.4348ZM14.0507 90.2805L12.1742 88.4259C15.8237 84.7294 19.5107 82.394 22.7703 80.9292C23.4525 81.407 24.188 81.8723 24.9643 82.3248C25.153 82.4316 25.3542 82.5322 25.5459 82.6392C22.1982 83.8903 18.1339 86.1408 14.0507 90.2805ZM46.672 82.1614C45.2102 82.5732 43.6198 82.7682 41.9663 82.7682C38.5778 82.7714 34.9286 81.9415 31.672 80.6748C30.0437 80.0461 28.516 79.3042 27.1675 78.5246C25.8191 77.7419 24.6467 76.9185 23.7444 76.1295C20.2742 73.1087 17.4672 69.56 15.534 65.6623C13.6007 61.7646 12.5353 57.5181 12.5353 53.0388C12.5353 49.9709 13.1074 47.0193 14.1415 44.1967C15.6943 39.9688 18.3001 36.043 21.5754 32.6261C24.8382 29.2124 28.761 26.3143 32.8788 24.1233C37.2448 21.9137 40.5109 19.8609 43.0066 18.0033C44.8801 16.6076 46.3197 15.3221 47.4451 14.1842C48.2906 13.3293 48.9601 12.556 49.5071 11.8959C49.9126 11.4024 50.249 10.9687 50.5286 10.6229C50.736 10.3652 50.9121 10.1546 51.0472 10.0037C51.1132 9.93448 51.1478 9.89988 51.1919 9.85904C51.2611 9.92502 51.346 10.0162 51.4496 10.1324C51.6319 10.3463 51.8646 10.6386 52.1442 10.9874C52.6315 11.6036 53.2664 12.3988 54.1089 13.3136C55.3694 14.6872 57.1013 16.3249 59.5719 18.1479C62.0425 19.9679 65.255 21.9734 69.511 24.1266C74.9992 27.0468 80.1355 31.2305 83.8445 36.2063C85.7021 38.6958 87.2047 41.377 88.2419 44.1967C89.2761 47.0193 89.8481 49.9709 89.8481 53.0388C89.8481 57.5211 88.7919 61.7865 86.8651 65.6875C84.9383 69.5914 82.1376 73.1308 78.6516 76.117C76.4325 78.0219 73.4747 79.7538 70.1554 80.9892C66.836 82.2244 63.1614 82.9693 59.5057 82.9663C57.8996 82.9663 56.3027 82.8092 54.7311 82.5042C55.3976 81.8693 56.0419 81.1873 56.6171 80.4078C57.9342 78.6192 58.9809 76.4598 59.7007 73.9262C60.4174 71.3865 60.8166 68.4727 60.8542 65.1375C60.8574 64.9739 60.8574 64.8073 60.8574 64.6345C60.8574 62.4814 60.6938 59.709 59.8483 56.7856C59.4208 55.3239 58.8235 53.8245 57.9812 52.3566C57.1419 50.8919 56.0574 49.4615 54.687 48.1477L51.6506 51.3224C52.7067 52.3315 53.5241 53.4128 54.1714 54.5411C55.1365 56.2292 55.7148 58.024 56.045 59.7654C56.3781 61.5067 56.4662 63.1915 56.4662 64.6343C56.4662 64.7884 56.4662 64.9393 56.463 65.087C56.4222 68.664 55.9222 71.5496 55.1208 73.8442C54.5173 75.5668 53.7502 76.9561 52.8608 78.0907C52.1975 78.9362 51.4621 79.6436 50.6668 80.2314C49.4759 81.1147 48.1367 81.7466 46.672 82.1614ZM85.1398 88.0771C82.4681 85.6944 79.3121 84.0033 76.5711 82.8372C77.5142 82.3123 78.4257 81.7591 79.2807 81.165C81.7765 82.3594 84.4736 83.9593 86.8939 86.1094L85.1398 88.0771Z" fill="#FE6AB4"/>
</svg>
