<svg width="95" height="95" viewBox="0 0 97 97" fill="none" xmlns="http://www.w3.org/2000/svg">
<g clip-path="url(#clip0_58_170)">
<path d="M63.307 24.4766C69.955 15.7134 69.6528 6.64798 69.6528 6.04361C69.6528 4.53271 68.1419 3.32399 66.631 3.02181C66.3288 3.02181 60.8895 3.32399 55.7525 8.76324C54.5437 5.74143 52.7307 3.32399 50.6154 0.906542C49.4067 -0.302181 47.5936 -0.302181 46.3849 0.906542C44.2696 3.32399 42.4565 6.04361 41.2478 8.76324C36.1107 3.32399 30.9736 3.32399 30.6715 3.32399C28.8584 3.32399 27.6497 4.53271 27.6497 6.34579C27.6497 6.64797 27.3475 15.7134 33.9955 24.4766C22.8148 29.3115 15.2603 40.4922 15.2603 53.486V64.9688C15.2603 79.7757 25.2322 92.1651 39.1325 95.7913C39.4347 95.7913 39.7369 96.0935 40.0391 96.0935C42.4565 96.6978 44.874 97 47.2914 97H49.7089C67.5375 97 81.74 82.7975 81.74 64.9688V53.486C81.74 40.7944 74.1855 29.6137 63.307 24.4766ZM57.5655 17.5265C57.5655 17.2243 57.5655 16.9221 57.5655 16.6199C59.3786 13.5981 61.4939 11.4829 63.307 10.5763C62.7026 13.5981 61.1917 18.1308 57.2634 22.3614H56.9612C57.2634 20.8505 57.5655 19.3396 57.5655 17.5265ZM58.4721 29.0093C62.4004 30.5203 66.0266 32.9377 69.0484 35.9595L62.0983 42.9097L53.335 34.1464L58.4721 29.0093ZM49.1045 38.3769L57.8677 47.1402L49.1045 55.9034L40.3413 47.1402L49.1045 38.3769ZM46.687 27.4984C46.9892 27.4984 46.9892 27.4984 47.2914 27.4984H49.7089C50.3132 27.4984 50.6154 27.4984 51.2198 27.4984L49.1045 29.6137L46.687 27.4984ZM44.874 60.134L37.0173 67.9907L28.254 59.2274L36.1107 51.3707L44.874 60.134ZM49.1045 64.3645L56.9612 72.2212L49.1045 80.0779L41.2478 72.2212L49.1045 64.3645ZM53.335 60.134L62.0983 51.3707L69.955 59.2274L61.1917 67.9907L53.335 60.134ZM48.5001 8.15888C50.3132 10.8785 51.5219 14.2025 51.5219 17.8287C51.5219 19.0374 51.2198 20.5483 50.9176 21.757C50.6154 21.757 50.3132 21.757 49.7089 21.757H47.2914C46.9892 21.757 46.687 21.757 46.0827 21.757C45.7805 20.2461 45.4783 19.0374 45.4783 17.5265C45.4783 14.2025 46.687 10.8785 48.5001 8.15888ZM39.4347 16.3178C39.4347 16.6199 39.4347 17.2243 39.4347 17.5265C39.4347 19.0374 39.7369 20.5483 40.0391 22.3614C36.4129 18.1308 34.5998 13.5981 33.9955 10.5763C35.5064 11.4829 37.6216 13.296 39.4347 16.3178ZM39.4347 28.7072L44.874 34.1464L36.1107 42.9097L28.8584 35.6573C31.578 32.3333 35.2042 29.9159 39.4347 28.7072ZM24.93 40.4922L31.578 47.1402L23.7213 54.9969L21.3039 52.5794C21.606 48.0467 22.8148 43.8162 24.93 40.4922ZM21.3039 65.8754L23.7213 63.4579L32.4846 72.2212L25.5344 79.1713C22.8148 75.243 21.3039 70.7103 21.3039 65.8754ZM39.4347 89.7477C35.8085 88.5389 32.4846 86.4237 29.4627 84.0062L36.7151 76.7539L44.5718 84.6106L39.4347 89.7477ZM49.7089 90.9564H47.2914H46.9892L49.1045 88.8411L51.2198 90.9564C50.6154 90.9564 50.3132 90.9564 49.7089 90.9564ZM58.4721 89.4455C58.1699 89.4455 57.8677 89.1433 57.8677 88.8411L53.335 84.3084L61.1917 76.4517L68.1419 83.4019C65.4222 86.1215 62.0983 88.2368 58.4721 89.4455ZM71.768 78.8692L65.4222 72.5234L74.1855 63.7601L75.6964 65.271C75.6964 70.1059 74.1855 74.6386 71.768 78.8692ZM74.1855 54.9969L66.3288 47.1402L72.3724 41.0966C74.4877 44.7227 75.6964 48.9533 75.6964 53.486L74.1855 54.9969Z" fill="#F5ED5C"/>
</g>
<defs>
<clipPath id="clip0_58_170">
<rect width="97" height="97" fill="white"/>
</clipPath>
</defs>
</svg>
