<svg width="88" height="88" viewBox="0 0 88 88" fill="none" xmlns="http://www.w3.org/2000/svg">
<circle cx="44" cy="44" r="44" fill="#06AFF2"/>
<path d="M20.7874 30.7604L29.8887 36.1354M29.8887 36.1354L44.1907 44.1979M29.8887 36.1354L20.7874 38.8229M29.8887 36.1354L28.5885 26.7291M67.5941 57.6354L58.4928 52.2604M58.4928 52.2604L44.1907 44.1979M58.4928 52.2604L59.7929 61.6666M58.4928 52.2604L67.5941 49.5729M44.1907 44.1979L29.8887 52.2604M44.1907 44.1979V25.3854M44.1907 44.1979V61.6666M44.1907 44.1979L58.4928 36.1354M29.8887 52.2604L20.7874 57.6354M29.8887 52.2604L20.7874 49.5729M29.8887 52.2604L28.5885 61.6666M44.1907 25.3854V17.3229M44.1907 25.3854L37.6898 22.6979M44.1907 25.3854L50.6916 22.6979M44.1907 61.6666V71.0729M44.1907 61.6666L50.6916 65.6979M44.1907 61.6666L37.6898 65.6979M58.4928 36.1354L67.5941 30.7604M58.4928 36.1354L67.5941 38.8229M58.4928 36.1354L59.7929 26.7291" stroke="white" stroke-width="6" stroke-linecap="round" stroke-linejoin="round"/>
</svg>
