<svg width="95" height="95" viewBox="0 0 86 95" fill="none" xmlns="http://www.w3.org/2000/svg">
<path d="M3 25.25L18.5556 34.15M18.5556 34.15L43 47.5M18.5556 34.15L3 38.6M18.5556 34.15L16.3333 18.575M83 69.75L67.4445 60.85M67.4445 60.85L43 47.5M67.4445 60.85L69.6667 76.425M67.4445 60.85L83 56.4M43 47.5L18.5556 60.85M43 47.5V16.35M43 47.5V76.425M43 47.5L67.4445 34.15M18.5556 60.85L3 69.75M18.5556 60.85L3 56.4M18.5556 60.85L16.3333 76.425M43 16.35V3M43 16.35L31.8889 11.9M43 16.35L54.1111 11.9M43 76.425V92M43 76.425L54.1111 83.1M43 76.425L31.8889 83.1M67.4445 34.15L83 25.25M67.4445 34.15L83 38.6M67.4445 34.15L69.6667 18.575" stroke="#06AFF2" stroke-width="6" stroke-linecap="round" stroke-linejoin="round"/>
</svg>
